<?xml version="1.0" encoding="UTF-8"?>
<svg width="308px" height="38px" viewBox="0 0 308 38" version="1.1" xmlns="http://www.w3.org/2000/svg" xmlns:xlink="http://www.w3.org/1999/xlink">
    <title>Group 3</title>
    <g id="Page-1" stroke="none" stroke-width="1" fill="none" fill-rule="evenodd">
        <g id="Artboard" transform="translate(-42.000000, -181.000000)" fill="#FFFFFF" fill-rule="nonzero">
            <g id="Group-3" transform="translate(42.010000, 181.110000)">
                <rect id="Rectangle" x="0" y="0" width="37.49" height="37.49"></rect>
                <polygon id="Path" points="42.27 8.5 57.96 30.66 58.02 30.66 58.02 8.5 58.66 8.5 58.66 31.46 57.7 31.46 42.01 9.3 41.95 9.3 41.95 31.46 41.31 31.46 41.31 8.5"></polygon>
                <path d="M60.63,31.46 L59.92,31.46 L69.21,8.5 L70.05,8.5 L79.12,31.46 L78.41,31.46 L75.39,23.9 L63.68,23.9 L60.63,31.46 Z M69.67,9.14 L69.61,9.14 L63.95,23.26 L75.14,23.26 L69.67,9.14 Z" id="Shape"></path>
                <path d="M80.38,31.46 L80.38,8.5 L89.77,8.5 C92.17,8.5 93.93,8.98 95.04,9.93 C96.15,10.88 96.73,12.37 96.78,14.38 C96.82,15.92 96.41,17.21 95.56,18.22 C94.7,19.24 93.47,19.93 91.86,20.29 L91.86,20.35 C92.83,20.48 93.61,20.71 94.21,21.04 C94.81,21.37 95.27,21.81 95.59,22.34 C95.91,22.88 96.13,23.51 96.23,24.24 C96.34,24.97 96.39,25.79 96.39,26.72 C96.39,27.04 96.4,27.44 96.42,27.93 C96.44,28.41 96.47,28.89 96.52,29.36 C96.56,29.83 96.62,30.26 96.68,30.65 C96.74,31.04 96.83,31.3 96.94,31.45 L96.23,31.45 C96.12,31.21 96.04,30.9 95.97,30.5 C95.91,30.1 95.86,29.68 95.83,29.23 C95.8,28.78 95.78,28.32 95.76,27.86 C95.75,27.4 95.74,26.99 95.74,26.62 C95.74,25.68 95.67,24.84 95.53,24.1 C95.39,23.36 95.11,22.74 94.68,22.23 C94.25,21.73 93.64,21.34 92.85,21.07 C92.06,20.8 91,20.67 89.67,20.67 L81.02,20.67 L81.02,31.44 L80.38,31.44 L80.38,31.46 Z M89.61,20.05 C90.47,20.05 91.29,19.94 92.07,19.73 C92.85,19.52 93.54,19.17 94.14,18.7 C94.74,18.23 95.22,17.63 95.59,16.92 C95.96,16.2 96.14,15.34 96.14,14.33 C96.12,12.7 95.63,11.43 94.66,10.52 C93.69,9.61 92.12,9.15 89.93,9.15 L81.02,9.15 L81.02,20.05 L89.61,20.05 Z" id="Shape"></path>
                <path d="M98.52,31.46 L97.81,31.46 L107.1,8.5 L107.94,8.5 L117.01,31.46 L116.3,31.46 L113.28,23.9 L101.57,23.9 L98.52,31.46 Z M107.55,9.14 L107.49,9.14 L101.83,23.26 L113.02,23.26 L107.55,9.14 Z" id="Shape"></path>
                <polygon id="Path" points="119.23 8.5 134.92 30.66 134.98 30.66 134.98 8.5 135.62 8.5 135.62 31.46 134.66 31.46 118.97 9.3 118.91 9.3 118.91 31.46 118.27 31.46 118.27 8.5"></polygon>
                <path d="M150.23,8.5 L150.23,25.48 C150.23,26.44 150.12,27.32 149.89,28.12 C149.66,28.91 149.31,29.6 148.81,30.18 C148.31,30.76 147.67,31.2 146.86,31.51 C146.06,31.82 145.08,31.98 143.92,31.98 C142.83,31.98 141.89,31.82 141.12,31.51 C140.35,31.2 139.72,30.77 139.22,30.21 C138.73,29.65 138.37,28.99 138.14,28.23 C137.91,27.47 137.8,26.64 137.8,25.74 L137.8,24.36 L138.44,24.36 L138.44,25.74 C138.44,27.63 138.9,29.04 139.82,29.97 C140.74,30.9 142.1,31.37 143.91,31.37 C144.83,31.37 145.64,31.26 146.34,31.05 C147.04,30.84 147.63,30.48 148.11,29.99 C148.59,29.5 148.96,28.84 149.2,28.03 C149.45,27.22 149.57,26.21 149.57,25.01 L149.57,8.51 L150.23,8.51 L150.23,8.5 Z" id="Path"></path>
                <path d="M152.35,31.46 L151.64,31.46 L160.93,8.5 L161.77,8.5 L170.84,31.46 L170.13,31.46 L167.11,23.9 L155.4,23.9 L152.35,31.46 Z M161.39,9.14 L161.32,9.14 L155.66,23.26 L166.85,23.26 L161.39,9.14 Z" id="Shape"></path>
                <path d="M199.37,26.3 C198.83,27.47 198.14,28.47 197.3,29.31 C196.45,30.15 195.45,30.8 194.29,31.27 C193.13,31.74 191.82,31.98 190.37,31.98 C188.85,31.98 187.45,31.69 186.17,31.1 C184.89,30.51 183.8,29.7 182.89,28.66 C181.98,27.62 181.27,26.38 180.75,24.93 C180.24,23.48 179.98,21.9 179.98,20.19 C179.98,18.8 180.18,17.38 180.58,15.93 C180.98,14.48 181.6,13.17 182.46,11.99 C183.32,10.81 184.43,9.85 185.8,9.1 C187.17,8.35 188.83,7.97 190.79,7.97 C192.31,7.97 193.64,8.22 194.78,8.73 C195.92,9.23 196.86,9.87 197.63,10.63 C198.39,11.39 198.96,12.2 199.35,13.06 C199.74,13.92 199.94,14.7 199.96,15.41 L199.32,15.41 C199.26,14.57 199.01,13.75 198.58,12.95 C198.15,12.15 197.57,11.42 196.83,10.78 C196.09,10.14 195.21,9.62 194.19,9.22 C193.17,8.82 192.04,8.63 190.8,8.63 C188.91,8.63 187.32,9.01 186.02,9.77 C184.72,10.53 183.68,11.49 182.88,12.63 C182.09,13.78 181.51,15.03 181.16,16.38 C180.81,17.73 180.63,19.01 180.63,20.21 C180.63,21.67 180.84,23.07 181.27,24.42 C181.7,25.77 182.33,26.96 183.17,27.99 C184.01,29.02 185.03,29.84 186.24,30.47 C187.45,31.09 188.83,31.4 190.37,31.4 C191.74,31.4 192.98,31.17 194.07,30.72 C195.16,30.27 196.11,29.65 196.9,28.86 C197.69,28.07 198.34,27.12 198.83,26.03 C199.32,24.94 199.65,23.76 199.83,22.49 L200.47,22.49 C200.27,23.85 199.9,25.13 199.37,26.3 Z" id="Path"></path>
                <path d="M202.81,31.46 L202.81,8.5 L212.2,8.5 C214.6,8.5 216.36,8.98 217.47,9.93 C218.58,10.88 219.16,12.37 219.21,14.38 C219.25,15.92 218.84,17.21 217.99,18.22 C217.13,19.24 215.9,19.93 214.29,20.29 L214.29,20.35 C215.25,20.48 216.04,20.71 216.64,21.04 C217.24,21.37 217.7,21.81 218.02,22.34 C218.34,22.88 218.56,23.51 218.66,24.24 C218.77,24.97 218.82,25.79 218.82,26.72 C218.82,27.04 218.83,27.44 218.85,27.93 C218.87,28.41 218.9,28.89 218.95,29.36 C218.99,29.83 219.05,30.26 219.11,30.65 C219.18,31.04 219.26,31.3 219.37,31.45 L218.66,31.45 C218.55,31.21 218.47,30.9 218.4,30.5 C218.34,30.1 218.29,29.68 218.25,29.23 C218.22,28.78 218.2,28.32 218.19,27.86 C218.18,27.4 218.17,26.99 218.17,26.62 C218.17,25.68 218.1,24.84 217.96,24.1 C217.82,23.36 217.54,22.74 217.11,22.23 C216.68,21.73 216.07,21.34 215.28,21.07 C214.49,20.8 213.42,20.67 212.1,20.67 L203.45,20.67 L203.45,31.44 L202.81,31.44 L202.81,31.46 Z M212.04,20.05 C212.9,20.05 213.72,19.94 214.5,19.73 C215.28,19.52 215.97,19.17 216.57,18.7 C217.17,18.23 217.65,17.63 218.02,16.92 C218.38,16.2 218.57,15.34 218.57,14.33 C218.55,12.7 218.05,11.43 217.09,10.52 C216.13,9.61 214.55,9.15 212.36,9.15 L203.45,9.15 L203.45,20.05 L212.04,20.05 Z" id="Shape"></path>
                <polygon id="Path" points="237.7 30.82 237.7 31.46 222.33 31.46 222.33 8.5 237.57 8.5 237.57 9.14 222.97 9.14 222.97 19.17 236.7 19.17 236.7 19.81 222.97 19.81 222.97 30.81 237.7 30.81"></polygon>
                <path d="M238.09,31.46 L237.38,31.46 L246.67,8.5 L247.51,8.5 L256.58,31.46 L255.87,31.46 L252.85,23.9 L241.14,23.9 L238.09,31.46 Z M247.12,9.14 L247.06,9.14 L241.4,23.26 L252.59,23.26 L247.12,9.14 Z" id="Shape"></path>
                <polygon id="Path" points="253.2 8.5 270.34 8.5 270.34 9.14 262.07 9.14 262.07 31.46 261.43 31.46 261.43 9.14 253.2 9.14"></polygon>
                <polygon id="Path" points="272.05 8.5 272.05 31.46 271.41 31.46 271.41 8.5"></polygon>
                <polygon id="Path" points="291.54 8.5 282.79 31.46 282.08 31.46 273.11 8.5 273.72 8.5 282.4 30.63 282.47 30.63 290.89 8.5"></polygon>
                <path d="M289.42,31.46 L288.71,31.46 L298,8.5 L298.84,8.5 L307.91,31.46 L307.2,31.46 L304.18,23.9 L292.47,23.9 L289.42,31.46 Z M298.45,9.14 L298.39,9.14 L292.73,23.26 L303.92,23.26 L298.45,9.14 Z" id="Shape"></path>
            </g>
        </g>
    </g>
</svg>